:SAMPLES-PER-SECOND 30
:FULLY-SPECIFIED
:DEGREES
17
root  59.6954 39.5362 1.19712 -118.589 -84.1618 119.537
RightUpLeg  -23.1544 -19.8554 -3.65574
RightLeg  9.9773 -11.9738 2.05066
RightFoot  -1.07306 -0.739651 8.09464
RightToes  2.32829e-010 0 -3.6325e-017
Spine  28.6609 -1.52182 -5.97244
Spine1  9.87934 -3.13783 -0.141612
HEad  0.869977 4.96616 -2.85633
LeftShoulder1  10.3942 -16.585 -45.0861
LeftArm  -17.1376 -11.1108 -25.1708
LeftForeArm  23.6284 -10.0515 -4.30918
LeftHand  -0.244104 0.0205437 5.32207
RightShoulder  6.34222 11.1874 37.1539
RightArm  -15.4938 5.63028 33.1308
RightForeArm  4.09412 9.76767 5.67478
RightHand  -0.660697 -0.0337079 -14.3319
LeftUpLeg  -4.40134 11.9491 -3.14172
LeftLeg  15.3954 14.2317 0.0452343
LeftFoot  -12.8189 0.0223222 -4.24851
LeftToes  1.42787e-010 7.94111e-011 2.6399e-011
18
root  59.3116 39.3446 1.10122 -108.793 -83.6511 110.818
RightUpLeg  -22.0636 -12.668 -7.24893
RightLeg  4.80684 -17.6875 4.99604
RightFoot  0.554286 -0.938828 9.0512
RightToes  2.32829e-010 0 -3.6325e-017
Spine  30.7385 -1.81613 -5.79193
Spine1  10.3738 -3.57352 -0.100203
HEad  -2.03595 4.60822 -3.22521
LeftShoulder1  10.4809 -17.0956 -44.2985
LeftArm  -16.6255 -15.4886 -26.7865
LeftForeArm  25.0597 -10.6949 -4.51641
LeftHand  -0.244104 0.0205437 5.32207
RightShoulder  6.33713 11.4442 36.3988
RightArm  -14.0601 9.6231 34.5911
RightForeArm  3.38811 10.9068 6.02216
RightHand  -0.898897 1.39322 -15.4753
LeftUpLeg  -6.27757 16.4368 -4.74762
LeftLeg  17.4188 9.64907 1.14078
LeftFoot  -13.31 0.0247013 -3.23268
LeftToes  1.42787e-010 7.94111e-011 2.6399e-011
19
root  58.9464 39.0869 1.00182 -99.603 -83.5893 102.52
RightUpLeg  -23.404 -11.6026 -7.45128
RightLeg  5.02332 -17.29 5.1082
RightFoot  4.18358 -0.738806 5.75545
RightToes  2.32829e-010 0 -3.6325e-017
Spine  33.086 -2.30333 -3.86351
Spine1  11.0955 -3.65041 -0.616082
HEad  -4.77419 3.04868 -3.17821
LeftShoulder1  10.4938 -17.7611 -42.883
LeftArm  -16.1822 -20.5603 -28.5811
LeftForeArm  25.9965 -9.7599 -4.77888
LeftHand  -0.244104 0.0205437 5.32207
RightShoulder  6.25618 11.5636 35.5451
RightArm  -13.1072 13.6122 35.6047
RightForeArm  1.88381 11.4338 6.29638
RightHand  -1.13916 2.65127 -16.5723
LeftUpLeg  -8.80675 19.7317 -6.13931
LeftLeg  20.661 5.55009 2.78564
LeftFoot  -14.2768 -0.00188417 -3.31707
LeftToes  1.42787e-010 7.94111e-011 2.6399e-011
20
root  58.6197 38.7597 0.903613 -93.875 -84.1538 97.7622
RightUpLeg  -26.542 -12.4553 -6.05164
RightLeg  8.92472 -16.3575 4.26801
RightFoot  7.52257 0.168934 -0.736687
RightToes  2.32829e-010 0 -3.6325e-017
Spine  35.7769 -2.99009 -0.51848
Spine1  11.4344 -3.18659 -1.80189
HEad  -7.59053 0.806515 -2.96059
LeftShoulder1  10.4134 -18.4701 -41.0474
LeftArm  -15.975 -25.8553 -30.5807
LeftForeArm  26.266 -8.23895 -4.92346
LeftHand  -0.244104 0.0205437 5.32207
RightShoulder  6.07666 11.6666 34.1007
RightArm  -13.1944 17.7896 36.4876
RightForeArm  0.70627 11.0059 6.47727
RightHand  -1.31547 3.46504 -17.3812
LeftUpLeg  -13.1479 17.5104 -5.86172
LeftLeg  27.7604 7.05681 4.38048
LeftFoot  -14.4272 -0.0440402 -5.02659
LeftToes  1.42787e-010 7.94111e-011 2.6399e-011
21
root  58.3614 38.4129 0.787552 -93.6516 -85.1913 98.6066
RightUpLeg  -30.6326 -16.0877 -2.32219
RightLeg  13.6915 -12.6982 3.13354
RightFoot  8.42003 1.03271 -5.63727
RightToes  2.32829e-010 0 -3.6325e-017
Spine  39.1022 -3.5658 2.89079
Spine1  11.1616 -2.41399 -2.74918
HEad  -10.9225 -1.28466 -3.04783
LeftShoulder1  10.3183 -19.1611 -39.2729
LeftArm  -15.9133 -31.0688 -32.2064
LeftForeArm  25.782 -6.81823 -4.93079
LeftHand  -0.244104 0.0205437 5.32207
RightShoulder  5.76012 11.8258 31.6236
RightArm  -14.3815 22.7457 37.4881
RightForeArm  1.03587 9.15407 6.40175
RightHand  -1.3987 3.92314 -17.5757
LeftUpLeg  -20.0552 17.5889 -5.10889
LeftLeg  38.6631 7.90188 7.13723
LeftFoot  -11.402 0.0617784 -6.10761
LeftToes  1.42787e-010 7.94111e-011 2.6399e-011
22
root  58.1761 38.0599 0.630893 -98.3625 -86.1862 104.18
RightUpLeg  -35.4712 -22.8941 4.27116
RightLeg  18.5289 -4.6505 1.72257
RightFoot  6.85107 1.21573 -7.27514
RightToes  2.32829e-010 0 -3.6325e-017
Spine  42.825 -3.81676 5.18784
Spine1  10.7847 -1.76017 -2.7081
HEad  -14.9571 -2.77386 -3.45503
LeftShoulder1  10.2308 -19.8599 -37.5981
LeftArm  -16.0067 -36.2722 -32.8783
LeftForeArm  24.7869 -5.39766 -4.97085
LeftHand  -0.244104 0.0205437 5.32207
RightShoulder  5.38243 12.1127 28.4634
RightArm  -15.6837 28.9621 38.1508
RightForeArm  1.75835 5.97164 5.94505
RightHand  -1.34189 3.81343 -17.0667
LeftUpLeg  -28.0563 19.4405 -4.72303
LeftLeg  49.7613 8.1208 10.5642
LeftFoot  -5.10591 0.261601 -4.52192
LeftToes  1.42787e-010 7.94111e-011 2.6399e-011
23
root  58.0094 37.6929 0.448405 -103.764 -86.8654 110.256
RightUpLeg  -40.0352 -27.7289 10.1041
RightLeg  22.8519 1.60514 0.844584
RightFoot  4.70871 1.11995 -7.69897
RightToes  2.32829e-010 0 -3.6325e-017
Spine  46.4591 -3.9744 6.66848
Spine1  10.8797 -1.37201 -2.22761
HEad  -19.4549 -3.86259 -3.65666
LeftShoulder1  10.0746 -20.6033 -35.6443
LeftArm  -16.3072 -41.586 -32.5532
LeftForeArm  23.6336 -3.75734 -5.05889
LeftHand  -0.244104 0.0205437 5.32207
RightShoulder  5.05447 12.5263 25.4199
RightArm  -17.0182 35.9057 37.659
RightForeArm  1.28277 2.56177 5.4251
RightHand  -1.17614 3.05193 -16.314
LeftUpLeg  -35.4337 21.9618 -5.28915
LeftLeg  57.1016 7.22558 12.3062
LeftFoot  0.0438613 0.143902 -1.36384
LeftToes  1.42787e-010 7.94111e-011 2.6399e-011
24
root  57.8033 37.4004 0.250794 -100.221 -87.0817 107.863
RightUpLeg  -43.1248 -28.1454 11.8431
RightLeg  26.0695 1.92687 0.724124
RightFoot  3.2964 1.12204 -8.53641
RightToes  2.32829e-010 0 -3.6325e-017
Spine  49.6834 -4.31075 7.68566
Spine1  11.5243 -1.14104 -2.08356
HEad  -24.1454 -4.93352 -3.46775
LeftShoulder1  9.88777 -21.4276 -33.5273
LeftArm  -17.2286 -46.9316 -31.342
LeftForeArm  22.7803 -2.06652 -5.07339
LeftHand  -0.244104 0.0205437 5.32207
RightShoulder  4.71819 12.8822 22.5346
RightArm  -18.9933 42.3935 35.7713
RightForeArm  -0.564082 0.284273 5.07403
RightHand  -1.03808 2.29969 -15.7993
LeftUpLeg  -41.7049 24.162 -7.32182
LeftLeg  58.9166 5.87611 10.9726
LeftFoot  0.57104 -0.0556295 0.536049
LeftToes  1.42787e-010 7.94111e-011 2.6399e-011
25
root  57.5465 37.2113 0.0407825 -85.4079 -86.8889 95.1197
RightUpLeg  -46.4687 -27.6814 12.7032
RightLeg  28.3901 0.939018 0.30498
RightFoot  2.29028 1.13604 -9.34082
RightToes  2.32829e-010 0 -3.6325e-017
Spine  52.2197 -4.70699 8.36242
Spine1  12.1107 -0.958841 -1.93377
HEad  -28.8623 -6.14093 -3.26353
LeftShoulder1  9.80695 -22.4377 -31.6538
LeftArm  -19.1215 -51.9439 -29.2934
LeftForeArm  22.1634 -0.674375 -4.91307
LeftHand  -0.244104 0.0205437 5.32207
RightShoulder  4.25837 12.9607 19.4015
RightArm  -21.6599 47.7204 32.6441
RightForeArm  -2.51417 -0.458957 4.87825
RightHand  -1.01296 2.35197 -15.3308
LeftUpLeg  -47.1752 25.4233 -10.5074
LeftLeg  55.6448 4.76108 7.98953
LeftFoot  -2.01298 0.0364663 -0.390212
LeftToes  1.42787e-010 7.94111e-011 2.6399e-011
26
root  57.2518 37.0219 -0.179655 -70.34 -86.3205 82.8363
RightUpLeg  -50.4431 -26.6225 13.3536
RightLeg  30.7467 -0.351063 -0.475051
RightFoot  1.1185 1.08096 -9.79909
RightToes  2.32829e-010 0 -3.6325e-017
Spine  54.6377 -5.04726 8.91902
Spine1  11.9621 -0.585181 -1.90742
HEad  -33.1709 -7.54241 -2.90763
LeftShoulder1  9.75316 -23.9222 -29.3697
LeftArm  -21.9819 -55.8632 -26.7725
LeftForeArm  21.3 0.299785 -4.49812
LeftHand  -0.244104 0.0205437 5.32207
RightShoulder  3.82978 12.738 16.9352
RightArm  -24.6811 51.6688 27.6058
RightForeArm  -3.68837 -0.215484 4.9927
RightHand  -1.01946 2.9282 -14.3961
LeftUpLeg  -51.8736 25.9069 -14.2617
LeftLeg  48.6774 4.14532 5.46958
LeftFoot  -4.36705 0.21194 -2.98186
LeftToes  1.42787e-010 7.94111e-011 2.6399e-011
27
root  56.9315 36.7604 -0.364735 -63.599 -85.924 78.975
RightUpLeg  -54.664 -25.6688 14.475
RightLeg  33.347 -1.12171 -1.04839
RightFoot  -0.0191543 1.06232 -10.6792
RightToes  2.32829e-010 0 -3.6325e-017
Spine  56.6053 -5.16814 9.55717
Spine1  12.2173 0.133963 -1.98328
HEad  -37.3587 -9.03463 -2.34769
LeftShoulder1  9.80835 -25.8651 -27.078
LeftArm  -26.1385 -59.1228 -22.8952
LeftForeArm  19.7678 1.13448 -3.90707
LeftHand  -0.244104 0.0205437 5.32207
RightShoulder  3.60336 12.7528 15.4089
RightArm  -28.8 54.5906 19.6725
RightForeArm  -4.83529 0.210151 5.33725
RightHand  -0.944795 3.09637 -13.1051
LeftUpLeg  -55.5259 26.3754 -18.1781
LeftLeg  40.2104 3.86881 3.88278
LeftFoot  -4.59126 0.23116 -3.4731
LeftToes  1.42787e-010 7.94111e-011 2.6399e-011
28
root  56.5964 36.4214 -0.47316 -63.3203 -86.0716 81.4947
RightUpLeg  -59.0426 -25.0652 16.4922
RightLeg  36.0367 -1.152 -1.16589
RightFoot  -1.04836 1.0824 -12.04
RightToes  2.32829e-010 0 -3.6325e-017
Spine  59.3827 -5.47195 9.76912
Spine1  11.0177 0.509606 -2.25709
HEad  -40.786 -9.11878 -1.97672
LeftShoulder1  9.72012 -26.5384 -25.9944
LeftArm  -31.0641 -61.5662 -16.8548
LeftForeArm  17.0313 1.70243 -3.63173
LeftHand  -0.244104 0.0205437 5.32207
RightShoulder  3.57556 13.8302 13.7018
RightArm  -33.137 56.213 11.7666
RightForeArm  -6.19328 0.440929 5.61785
RightHand  -0.825575 2.68304 -12.0572
LeftUpLeg  -58.9343 26.9505 -21.9043
LeftLeg  33.9609 3.34649 2.77364
LeftFoot  -2.99495 0.00763798 0.0429799
LeftToes  1.42787e-010 7.94111e-011 2.6399e-011
29
root  56.2505 36.0374 -0.537135 -63.361 -86.4926 84.3588
RightUpLeg  -63.4483 -24.401 18.7603
RightLeg  38.8167 -1.03996 -1.18091
RightFoot  -2.31239 1.01544 -12.9805
RightToes  2.32829e-010 0 -3.6325e-017
Spine  61.9301 -5.69307 10.1618
Spine1  9.3474 1.09541 -2.80016
HEad  -43.6132 -9.23055 -1.43182
LeftShoulder1  9.70465 -27.4262 -24.955
LeftArm  -36.8321 -63.2671 -10.5049
LeftForeArm  13.8266 2.10102 -3.13518
LeftHand  -0.244104 0.0205437 5.32207
RightShoulder  3.66655 14.9757 12.8253
RightArm  -37.7434 56.6079 3.21899
RightForeArm  -8.06313 0.690886 5.90439
RightHand  -0.762956 2.43747 -11.5018
LeftUpLeg  -63.0814 26.7876 -24.5255
LeftLeg  33.0582 2.8681 2.36579
LeftFoot  -1.62198 -0.40768 4.97103
LeftToes  1.42787e-010 7.94111e-011 2.6399e-011
30
root  55.8928 35.6402 -0.613303 -59.8506 -87.0364 83.4864
RightUpLeg  -67.3263 -23.3763 20.6304
RightLeg  41.6288 -1.22586 -1.46851
RightFoot  -3.89761 0.839858 -13.2336
RightToes  2.32829e-010 0 -3.6325e-017
Spine  64.5084 -5.82779 10.6635
Spine1  6.79916 1.63934 -3.24899
HEad  -45.6499 -9.39194 -0.944844
LeftShoulder1  9.74974 -28.5455 -23.9261
LeftArm  -42.8464 -64.0472 -4.39393
LeftForeArm  10.5137 2.00726 -2.44046
LeftHand  -0.244104 0.0205437 5.32207
RightShoulder  3.81561 15.9607 12.5549
RightArm  -41.9358 56.2013 -4.50138
RightForeArm  -10.0903 0.946292 6.1123
RightHand  -0.830434 3.06573 -11.6001
LeftUpLeg  -67.6081 26.0265 -25.4691
LeftLeg  36.417 2.8763 2.64919
LeftFoot  -2.04853 -0.59634 7.4801
LeftToes  1.42787e-010 7.94111e-011 2.6399e-011
31
root  55.5258 35.2734 -0.710044 -53.7185 -87.5288 79.6049
RightUpLeg  -70.4548 -22.3181 22.085
RightLeg  44.1894 -1.55604 -1.93771
RightFoot  -5.48656 0.652268 -13.4053
RightToes  2.32829e-010 0 -3.6325e-017
Spine  67.2398 -5.94241 11.0693
Spine1  3.96359 2.0536 -3.68986
HEad  -47.0203 -9.54539 -0.54599
LeftShoulder1  9.95774 -29.772 -23.3669
LeftArm  -48.8642 -64.129 1.91332
LeftForeArm  7.86226 1.46181 -1.74573
LeftHand  -0.244104 0.0205437 5.32207
RightShoulder  3.98535 16.686 12.6996
RightArm  -46.0619 55.6102 -10.6481
RightForeArm  -12.4169 1.02531 6.01104
RightHand  -1.03092 4.47991 -12.3538
LeftUpLeg  -71.6572 25.6507 -25.9518
LeftLeg  40.1702 2.60006 2.73225
LeftFoot  -3.69365 -0.458001 7.15118
LeftToes  1.42787e-010 7.94111e-011 2.6399e-011
